<svg xmlns="http://www.w3.org/2000/svg" enable-background="new 0 0 64 64" viewBox="0 0 64 64" id="women"><path d="M32.937 27.8501c-.1616.1797-.4707.2998-.8081.3135-.4092.0156-.7861-.1191-1.0537-.3726-.4019-.3784-1.0347-.3604-1.4141.041-.3789.4019-.3604 1.0347.041 1.4141.6235.5884 1.478.9189 2.3628.9189.0488 0 .0977-.001.1465-.0029.8823-.0366 1.689-.3921 2.2134-.9751.3691-.4111.335-1.043-.0762-1.4121C33.9404 27.4067 33.3066 27.4395 32.937 27.8501zM37.3643 20.5024c-.957-.0449-1.8516.2954-2.5098.916-.4014.3794-.4199 1.0122-.041 1.4141.3799.4019 1.0117.4199 1.4141.041.2666-.2529.6582-.394 1.0537-.3726.3369.0137.6465.1338.8076.3135.1982.2197.4707.3315.7441.3315.2383 0 .4775-.0845.668-.2563.4111-.3691.4453-1.001.0762-1.4121C39.0527 20.8945 38.2461 20.5391 37.3643 20.5024zM26.624 20.5024c-.9316-.0313-1.8501.2969-2.5059.9175-.4009.3799-.4185 1.0127-.0386 1.4136.3809.4014 1.0132.4185 1.4136.0386.2666-.2515.6572-.3848 1.0503-.3711.3384.0137.6489.1338.8105.3135.1973.2197.4702.3315.7441.3315.2378 0 .4771-.0845.668-.2563.4106-.3691.4443-1.001.0752-1.4121C28.3169 20.8936 27.5088 20.5381 26.624 20.5024z"></path><path d="M46.818,37.6747c1.9553-0.8568,3.7733-1.8824,4.4232-2.285c0.2803-0.1733,0.457-0.4746,0.4727-0.8042c0.0361-0.7915,0.792-19.4902-7.9746-28.6694C40.624,2.6538,36.6777,1,32.0088,1c-7.48,0-13.1753,4.3486-16.4712,12.5757c-3.4829,8.6953-3.3936,20.0303-1.8545,21.4985c0.9305,0.8464,2.5306,1.6505,4.1416,2.2913C9.1498,41.3243,9.146,48.3691,9.146,53.2983V62c0,0.5522,0.4478,1,1,1h43.7085c0.5527,0,1-0.4478,1-1v-8.7017C54.8545,48.4947,54.8489,41.6827,46.818,37.6747z M15.0981,33.6572c-0.7793-1.5742-1.126-13.9854,3.9209-22.7056C22.0728,5.6753,26.4429,3,32.0088,3c4.0996,0,7.5586,1.4448,10.2813,4.2944c7.3936,7.7378,7.4941,23.5713,7.4404,26.6685c-1.2482,0.7234-3.6017,1.9459-5.5634,2.6014c-1.0555-0.3695-2.2189-0.6987-3.4932-0.9844l-1.4541-2.7407c3.2596-3.1584,5.6924-7.7827,5.6924-11.3953v-4.7144c0-0.5376-0.4248-0.979-0.9619-0.9995c-6.1689-0.2344-10.5391-1.6011-16.7012-5.2231c-0.4199-0.2466-0.9595-0.1538-1.2734,0.2202c-0.7744,0.9248-1.2905,1.6929-1.7051,2.3105c-1.0605,1.5796-1.418,2.1118-4.3647,2.7119c-0.4658,0.0952-0.8003,0.5049-0.8003,0.98v4.6934c0,3.9068,2.108,8.4203,5.2226,11.4774l-1.0714,2.6946c-0.8962,0.2027-1.7361,0.4274-2.522,0.6727C18.3207,35.532,16.0413,34.4777,15.0981,33.6572z M31.9355,34.4575c-5.5781,0-10.8301-7.3433-10.8301-13.0347v-3.8911c2.9155-0.7085,3.6592-1.6426,4.8257-3.3794c0.2974-0.4434,0.624-0.9297,1.0527-1.4873c5.7813,3.3066,10.1333,4.6807,15.9282,5.0176v3.7612C42.9121,26.4644,36.9189,34.4575,31.9355,34.4575z M38.924,36.5508l-1.5361,4.877H26.6047l-1.5519-4.937l0.8762-2.2037c1.8196,1.3412,3.8759,2.1705,6.0065,2.1705c1.9211,0,3.9102-0.8762,5.7368-2.2657L38.924,36.5508z M17.8276,61v-4.8857c0-0.5522-0.4478-1-1-1s-1,0.4478-1,1V61H11.146v-7.7017c0-5.4939,0.012-12.2471,10.8614-15.3231l-2.8155,5.095c-0.2163,0.3921-0.146,0.8804,0.1724,1.1948l3.1855,3.1489l-2.2593,5.7666c-0.1616,0.4126-0.0322,0.8823,0.3174,1.1543L29.1845,61H17.8276z M22.4253,53.2144l2.2271-5.6836c0.1455-0.3721,0.0562-0.7949-0.228-1.0757l-3.1157-3.0801l2.4297-4.3961L30.084,59.166L22.4253,53.2144z M27.2334,43.4277h9.5246l-4.767,15.1349L27.2334,43.4277z M40.2478,39.0064l2.4036,4.4467l-3.1211,3.085c-0.2842,0.2813-0.374,0.7041-0.2275,1.0762l2.2266,5.6836l-7.657,5.948L40.2478,39.0064z M52.8545,61H47.752v-4.8857c0-0.5522-0.4473-1-1-1s-1,0.4478-1,1V61H34.8737l8.473-6.5815c0.3506-0.272,0.4795-0.7417,0.3174-1.1543l-2.2598-5.7666l3.1865-3.1494c0.3154-0.312,0.3877-0.7954,0.1768-1.1865l-2.8046-5.1888c0.6553,0.1854,1.2853,0.3794,1.8641,0.5905c0.0125,0.0045,0.0244,0.0093,0.0371,0.0132c8.9839,3.2929,8.9903,9.5633,8.9903,14.7219V61z"></path></svg>